<mxfile host="app.diagrams.net" modified="2023-11-17T09:30:40.563Z" agent="Mozilla/5.0 (Windows NT 10.0; Win64; x64) AppleWebKit/537.36 (KHTML, like Gecko) Chrome/119.0.0.0 Safari/537.36" etag="tXJUhqIgCpby9d-KcRmw" version="22.1.2" type="device">
  <diagram name="Page-1" id="2c0d36ab-eaac-3732-788b-9136903baeff">
    <mxGraphModel dx="1185" dy="661" grid="1" gridSize="10" guides="1" tooltips="1" connect="1" arrows="1" fold="1" page="1" pageScale="1.5" pageWidth="1169" pageHeight="827" background="none" math="0" shadow="0">
      <root>
        <mxCell id="0" />
        <mxCell id="1" parent="0" />
        <mxCell id="jIEwwn_bYMjbMSormNGw-134" value="" style="fillColor=#10739E;strokeColor=none;opacity=30;" vertex="1" parent="1">
          <mxGeometry x="1090" y="330" width="200" height="350" as="geometry" />
        </mxCell>
        <mxCell id="jIEwwn_bYMjbMSormNGw-132" value="" style="fillColor=#10739E;strokeColor=none;opacity=30;" vertex="1" parent="1">
          <mxGeometry x="420" y="330" width="200" height="350" as="geometry" />
        </mxCell>
        <mxCell id="jIEwwn_bYMjbMSormNGw-133" value="" style="fillColor=#10739E;strokeColor=none;opacity=30;" vertex="1" parent="1">
          <mxGeometry x="647" y="330" width="200" height="350" as="geometry" />
        </mxCell>
        <mxCell id="123" value="" style="fillColor=#b1ddf0;strokeColor=#10739e;opacity=30;" parent="1" vertex="1">
          <mxGeometry x="750" y="175.50000000000003" width="210" height="99.99999999999994" as="geometry" />
        </mxCell>
        <mxCell id="116" value="" style="fillColor=#10739E;strokeColor=none;opacity=30;" parent="1" vertex="1">
          <mxGeometry x="870" y="330" width="200" height="350" as="geometry" />
        </mxCell>
        <mxCell id="jIEwwn_bYMjbMSormNGw-127" style="edgeStyle=orthogonalEdgeStyle;rounded=0;orthogonalLoop=1;jettySize=auto;html=1;exitX=0.5;exitY=1;exitDx=0;exitDy=0;" edge="1" parent="1" source="2" target="10">
          <mxGeometry relative="1" as="geometry" />
        </mxCell>
        <mxCell id="2" value="Azure Storage Types" style="rounded=1;fillColor=#1ba1e2;strokeColor=#006EAF;fontStyle=1;fontFamily=Raleway;fontSize=14;fontSource=https%3A%2F%2Ffonts.googleapis.com%2Fcss%3Ffamily%3DRaleway;fontColor=#ffffff;" parent="1" vertex="1">
          <mxGeometry x="760" y="185.5" width="190" height="80" as="geometry" />
        </mxCell>
        <mxCell id="jIEwwn_bYMjbMSormNGw-131" style="edgeStyle=orthogonalEdgeStyle;rounded=0;orthogonalLoop=1;jettySize=auto;html=1;exitX=0.5;exitY=1;exitDx=0;exitDy=0;" edge="1" parent="1" source="4" target="jIEwwn_bYMjbMSormNGw-129">
          <mxGeometry relative="1" as="geometry" />
        </mxCell>
        <mxCell id="4" value="Queue Storage" style="rounded=1;fillColor=#fa6800;strokeColor=#C73500;fontColor=#000000;fontStyle=1;fontFamily=Raleway;fontSize=14;fontSource=https%3A%2F%2Ffonts.googleapis.com%2Fcss%3Ffamily%3DRaleway;" parent="1" vertex="1">
          <mxGeometry x="1094.9999999999998" y="335.5" width="190" height="80" as="geometry" />
        </mxCell>
        <mxCell id="9" value="" style="edgeStyle=elbowEdgeStyle;elbow=vertical;strokeWidth=2;rounded=0" parent="1" source="2" target="4" edge="1">
          <mxGeometry x="337" y="215.5" width="100" height="100" as="geometry">
            <mxPoint x="337" y="315.5" as="sourcePoint" />
            <mxPoint x="437" y="215.5" as="targetPoint" />
          </mxGeometry>
        </mxCell>
        <mxCell id="10" value="Table Storage" style="rounded=1;fillColor=#fa6800;strokeColor=#C73500;fontColor=#000000;fontStyle=1;fontFamily=Raleway;fontSize=14;fontSource=https%3A%2F%2Ffonts.googleapis.com%2Fcss%3Ffamily%3DRaleway;" parent="1" vertex="1">
          <mxGeometry x="875" y="335.5" width="190" height="80" as="geometry" />
        </mxCell>
        <mxCell id="12" value="File Storage" style="rounded=1;fillColor=#fa6800;strokeColor=#C73500;fontColor=#000000;fontStyle=1;fontFamily=Raleway;fontSize=14;fontSource=https%3A%2F%2Ffonts.googleapis.com%2Fcss%3Ffamily%3DRaleway;" parent="1" vertex="1">
          <mxGeometry x="651.9999999999999" y="335.5" width="190" height="80" as="geometry" />
        </mxCell>
        <mxCell id="13" value="Blob Storage" style="rounded=1;fillColor=#fa6800;strokeColor=#C73500;fontColor=#000000;fontStyle=1;fontFamily=Raleway;fontSize=14;fontSource=https%3A%2F%2Ffonts.googleapis.com%2Fcss%3Ffamily%3DRaleway;" parent="1" vertex="1">
          <mxGeometry x="425" y="335.5" width="190" height="80" as="geometry" />
        </mxCell>
        <mxCell id="14" value="Ongestructureerde data&#xa;Hot, Cool, Cold &amp; Archive" style="rounded=1;fillColor=#1ba1e2;strokeColor=#006EAF;fontColor=#ffffff;fontStyle=1;fontFamily=Raleway;fontSize=14;align=center;horizontal=1;verticalAlign=middle;fontSource=https%3A%2F%2Ffonts.googleapis.com%2Fcss%3Ffamily%3DRaleway;" parent="1" vertex="1">
          <mxGeometry x="430" y="446" width="180" height="224" as="geometry" />
        </mxCell>
        <mxCell id="59" value="" style="edgeStyle=elbowEdgeStyle;elbow=vertical;strokeWidth=2;rounded=0" parent="1" source="2" target="12" edge="1">
          <mxGeometry x="347" y="225.5" width="100" height="100" as="geometry">
            <mxPoint x="861.9999999999999" y="275.5" as="sourcePoint" />
            <mxPoint x="1466.9999999999998" y="345.5" as="targetPoint" />
          </mxGeometry>
        </mxCell>
        <mxCell id="61" value="" style="edgeStyle=elbowEdgeStyle;elbow=vertical;strokeWidth=2;rounded=0" parent="1" source="2" target="13" edge="1">
          <mxGeometry x="-23" y="135.5" width="100" height="100" as="geometry">
            <mxPoint x="-23" y="235.5" as="sourcePoint" />
            <mxPoint x="77" y="135.5" as="targetPoint" />
          </mxGeometry>
        </mxCell>
        <mxCell id="62" value="" style="edgeStyle=elbowEdgeStyle;elbow=vertical;strokeWidth=2;rounded=0" parent="1" source="13" target="14" edge="1">
          <mxGeometry x="-23" y="135.5" width="100" height="100" as="geometry">
            <mxPoint x="292" y="235.5" as="sourcePoint" />
            <mxPoint x="392" y="135.5" as="targetPoint" />
          </mxGeometry>
        </mxCell>
        <mxCell id="76" value="" style="edgeStyle=elbowEdgeStyle;elbow=horizontal;strokeWidth=2;rounded=0" parent="1" target="34" edge="1">
          <mxGeometry x="-23" y="135.5" width="100" height="100" as="geometry">
            <mxPoint x="767" y="485.5" as="sourcePoint" />
            <mxPoint x="77" y="135.5" as="targetPoint" />
            <Array as="points">
              <mxPoint x="747" y="535.5" />
            </Array>
          </mxGeometry>
        </mxCell>
        <mxCell id="77" value="" style="edgeStyle=elbowEdgeStyle;elbow=horizontal;strokeWidth=2;rounded=0" parent="1" target="35" edge="1">
          <mxGeometry x="-23" y="135.5" width="100" height="100" as="geometry">
            <mxPoint x="767" y="485.5" as="sourcePoint" />
            <mxPoint x="77" y="135.5" as="targetPoint" />
            <Array as="points">
              <mxPoint x="747" y="575.5" />
            </Array>
          </mxGeometry>
        </mxCell>
        <mxCell id="101" value="" style="edgeStyle=elbowEdgeStyle;elbow=vertical;strokeWidth=2;rounded=0" parent="1" source="12" edge="1">
          <mxGeometry x="-23" y="135.5" width="100" height="100" as="geometry">
            <mxPoint x="67" y="235.5" as="sourcePoint" />
            <mxPoint x="747" y="455.5" as="targetPoint" />
          </mxGeometry>
        </mxCell>
        <mxCell id="103" value="" style="edgeStyle=elbowEdgeStyle;elbow=vertical;strokeWidth=2;rounded=0" parent="1" source="10" edge="1">
          <mxGeometry x="-23" y="135.5" width="100" height="100" as="geometry">
            <mxPoint x="-95" y="235.5" as="sourcePoint" />
            <mxPoint x="970" y="455.5" as="targetPoint" />
          </mxGeometry>
        </mxCell>
        <mxCell id="jIEwwn_bYMjbMSormNGw-126" value="Document opslagÂ " style="rounded=1;fillColor=#1ba1e2;strokeColor=#006EAF;fontColor=#ffffff;fontStyle=1;fontFamily=Raleway;fontSize=14;fontSource=https%3A%2F%2Ffonts.googleapis.com%2Fcss%3Ffamily%3DRaleway;" vertex="1" parent="1">
          <mxGeometry x="657" y="455.5" width="180" height="214.5" as="geometry" />
        </mxCell>
        <mxCell id="jIEwwn_bYMjbMSormNGw-128" value="Gestructureerde data" style="rounded=1;fillColor=#1ba1e2;strokeColor=#006EAF;fontColor=#ffffff;fontStyle=1;fontFamily=Raleway;fontSize=14" vertex="1" parent="1">
          <mxGeometry x="880" y="455.5" width="180" height="214.5" as="geometry" />
        </mxCell>
        <mxCell id="jIEwwn_bYMjbMSormNGw-129" value="Berichten" style="rounded=1;fillColor=#1ba1e2;strokeColor=#006EAF;fontColor=#ffffff;fontStyle=1;fontFamily=Raleway;fontSize=14;labelBackgroundColor=none;" vertex="1" parent="1">
          <mxGeometry x="1100" y="455.5" width="180" height="214.5" as="geometry" />
        </mxCell>
      </root>
    </mxGraphModel>
  </diagram>
</mxfile>
